<svg xmlns="http://www.w3.org/2000/svg" xmlns:xlink="http://www.w3.org/1999/xlink" viewBox="0 0 3840 2160"><defs><style>.cls-1{isolation:isolate;}.cls-2,.cls-3,.cls-4,.cls-5,.cls-6,.cls-7{stroke-miterlimit:10;}.cls-2{mix-blend-mode:darken;fill:url(#radial-gradient);stroke:url(#linear-gradient);}.cls-3,.cls-4,.cls-6{fill:none;}.cls-3{stroke:#000;stroke-width:20px;}.cls-4,.cls-5{stroke:#f9f9f9;}.cls-4,.cls-5,.cls-6{stroke-width:30px;}.cls-5,.cls-7{fill:#fff;}.cls-6,.cls-7{stroke:#fff;}</style><radialGradient id="radial-gradient" cx="2016.85" cy="55.43" r="2010.45" gradientUnits="userSpaceOnUse"><stop offset="0.1" stop-color="#303030"/><stop offset="0.51" stop-color="#121212"/><stop offset="0.77"/></radialGradient><linearGradient id="linear-gradient" x1="1287.48" y1="1022.52" x2="2566.82" y2="1022.52" gradientUnits="userSpaceOnUse"><stop offset="0" stop-color="#303030"/><stop offset="0.7" stop-color="#121212"/><stop offset="0.93"/></linearGradient></defs><title>humte gradiant logo3</title><g class="cls-1"><g id="Layer_1" data-name="Layer 1"><rect class="cls-2" x="1287.98" y="438.48" width="1278.34" height="1168.08" rx="257.42"/><path class="cls-3" d="M2646.89,746.69v-.86"/><path class="cls-4" d="M1869,840.13a84.32,84.32,0,0,1,1.51-14.23c7.64-39.51,65.3-38.3,71.27,1.5a83.92,83.92,0,0,1-37.39,82.91,83.84,83.84,0,0,1-129.21-72.16l0-.85c1.41-45.33,69.23-45.07,72.25-2"/><path class="cls-4" d="M1962.81,842.11a84.1,84.1,0,0,1,1.51-14.23c7.64-39.52,65.3-38.31,71.27,1.5a83.9,83.9,0,0,1-37.4,82.9A83.77,83.77,0,0,1,1869,840.13a84.32,84.32,0,0,1,1.51-14.23c7.64-39.51,65.3-38.3,71.27,1.5a84.22,84.22,0,0,1,.91,14.28"/><line class="cls-5" x1="1963.73" y1="833.14" x2="1925.53" y2="1279.13"/><line class="cls-5" x1="1847.46" y1="834.72" x2="1886.04" y2="1312.3"/><path class="cls-6" d="M1926.09,1276c-.87,9-1.26,13.3-.35,17.85,1.13,5.69,5.66,4.38,8.44,3.07,3.63-1.71,3.94-2.12,9.49-5.49q5.7-3.45,11.33-7c2.39-1.52,6-3.77,10.38-6.49h0l173.69-109.78,12.15-11.11c118.17-127.16,77-261.4,31-339.12C2129,728,2028.82,704.17,1997,696.27c-117.81-29.25-222.28,14.25-270.8,50.92-14.72,11.13-42.81,33-56.74,73.32-10.64,30.77-12.54,44.55-13,53.38-.84,16.37-5.94,65.69,10.85,109,1.53,4,3.17,11.61,4.32,22.45,2,19,0,34.29-2.23,41.12-4.14,12.46-9.47,21-15.74,31-5.27,8.4-9.81,14.25-18.42,25.32-7.83,10.08-14.17,17.51-18.92,23.07-10.43,12.19-15.64,18.29-20,22.49-3.88,3.72-6.21,6.31-10.86,11.51-4.9,5.48-6.38,7.54-7.48,10.46-1.78,4.72-1.56,8.93-1.38,12.26a33.13,33.13,0,0,0,2.55,11.79,25.73,25.73,0,0,0,7.05,10.21c2.58,2.14,4,2.22,15.52,5.92,9.44,3,11.53,4,13.86,5.32,3.8,2.23,7,4.17,8.77,8s1.1,7.51.31,11.74c-1.45,7.8-5.5,14.6-7.06,17.17-2,3.3-2.69,3.76-2.91,5.53-.72,5.65,5,10.72,7.55,13a35.34,35.34,0,0,0,13.24,8.1c2.9.92,5.63,1.31,6.63,3.5.58,1.27.32,2.61-.68,5.57a84.72,84.72,0,0,1-4.12,10c-3.65,7.76-4,9.35-4.14,11.09a13.74,13.74,0,0,0,1,6.73c.9,2,2.15,3.28,6.56,6.84,6.13,5,6.27,4.61,8.8,6.9a71.57,71.57,0,0,1,7.64,8.54c3.64,4.45,5.45,6.67,6.52,9.08,1.6,3.61,1.76,6.55,2,11.22.34,6.62-.51,11.92-1.5,17.85-.76,4.6-1,4.48-1.88,10a78,78,0,0,0-1.38,12.26,36.25,36.25,0,0,0,.89,10.64,30.7,30.7,0,0,0,4.82,10.16,34.09,34.09,0,0,0,10.42,9.16,45.68,45.68,0,0,0,13.85,5.88c5.6,1.29,9.92,1.08,14.51.87a79.36,79.36,0,0,0,15.7-2.47c6.9-1.78,11.64-4,18-6.88a176.86,176.86,0,0,0,16.39-8.6,216.62,216.62,0,0,0,19.26-12.42l102.79-77.78c1.8-2.08,4.18-4.15,5.75-7.7,3.16-7.13,2-11.51,2.13-17.84"/><path class="cls-7" d="M2410.47,1065.32h0c1.07-7-6.28-13.89-16.51-15.64-.31-.06-.62-.1-.94-.13l-120.16-12.4c-5.3-.54-9.83,1.78-10.38,5.34h0c-.56,3.57,3.07,7.17,8.31,8.25l118.29,24.33c.3.06.6.12.9.16C2400.26,1076.66,2409.39,1072.28,2410.47,1065.32Z"/><path class="cls-7" d="M2413.21,865h0c-1.49-6.88-10.85-10.7-21-8.66-.3.06-.61.14-.92.22l-116.57,31.64c-5.15,1.4-8.54,5.2-7.78,8.72h0c.77,3.53,5.45,5.58,10.72,4.71l119.13-19.84q.45-.08.9-.18C2407.77,879.28,2414.71,871.91,2413.21,865Z"/><path class="cls-7" d="M2327.09,676.09h0c-4.28-5.59-14.38-5.07-22.71,1.11-.26.19-.5.39-.74.59l-92,78.26c-4.07,3.46-5.51,8.34-3.32,11.2h0c2.19,2.87,7.3,2.73,11.7-.31l99.35-68.66c.25-.17.5-.35.74-.54C2328.23,691.3,2331.37,681.68,2327.09,676.09Z"/><path class="cls-7" d="M1940.06,491.25h0c-7-.15-13,8.05-13.34,18.42,0,.32,0,.63,0,.95l3.52,120.74c.15,5.34,3.06,9.52,6.66,9.6h0c3.61.08,6.7-4,7.08-9.33l8.55-120.46c0-.31,0-.61,0-.92C1952.64,499.87,1947.09,491.41,1940.06,491.25Z"/><path class="cls-7" d="M1731.86,526.62h0c-6.57,2.54-8.9,12.38-5.31,22.12q.17.43.36.87L1776.2,659.9c2.18,4.87,6.46,7.63,9.82,6.33h0c3.37-1.31,4.67-6.25,3-11.32l-38-114.63c-.1-.29-.2-.58-.32-.86C1746.77,529.8,1738.42,524.08,1731.86,526.62Z"/><path class="cls-7" d="M1553.93,642.06h0c-4.9,5.05-2.91,15,4.42,22.31.22.22.46.44.69.64l90.89,79.58c4,3.52,9,4.23,11.56,1.65h0c2.51-2.59,1.63-7.63-2-11.53L1577,646.47c-.21-.22-.42-.44-.64-.65C1568.8,638.71,1558.83,637,1553.93,642.06Z"/><path class="cls-7" d="M2145.12,537.55h0c-6.35-3-15.11,2-19.75,11.29-.14.28-.26.57-.39.86l-46.56,111.46c-2.06,4.92-1.14,9.93,2.11,11.49h0c3.26,1.56,7.75-.88,10.29-5.58l57.46-106.23c.14-.27.28-.54.41-.82C2153,550.59,2151.47,540.59,2145.12,537.55Z"/><path class="cls-7" d="M2287.41,1169.32l-66,5.33a2.82,2.82,0,0,0-2.09,4.42l12.2,17.68-545.8,354a11.91,11.91,0,0,0-3.51,16.48h0a11.91,11.91,0,0,0,16.48,3.52l546.38-354.32,11.86,17.16a2.82,2.82,0,0,0,4.87-.39l28.37-59.81A2.82,2.82,0,0,0,2287.41,1169.32Z"/></g></g></svg>