<svg xmlns="http://www.w3.org/2000/svg" xmlns:xlink="http://www.w3.org/1999/xlink" viewBox="0 0 3840 2160"><defs><style>.cls-1{isolation:isolate;}.cls-2,.cls-3,.cls-4,.cls-5,.cls-6{stroke-miterlimit:10;}.cls-2{mix-blend-mode:darken;fill:url(#radial-gradient);stroke:url(#linear-gradient);}.cls-3,.cls-5{fill:none;}.cls-3,.cls-4{stroke:#f9f9f9;}.cls-3,.cls-4,.cls-5{stroke-width:30px;}.cls-4,.cls-6{fill:#fff;}.cls-5,.cls-6{stroke:#fff;}</style><radialGradient id="radial-gradient" cx="2016.85" cy="55.43" r="2010.45" gradientUnits="userSpaceOnUse"><stop offset="0.1" stop-color="#303030"/><stop offset="0.51" stop-color="#121212"/><stop offset="0.77"/></radialGradient><linearGradient id="linear-gradient" x1="1287.48" y1="1022.52" x2="2566.82" y2="1022.52" gradientUnits="userSpaceOnUse"><stop offset="0" stop-color="#303030"/><stop offset="0.7" stop-color="#121212"/><stop offset="0.93"/></linearGradient></defs><title>Edited humte gradiant logo3</title><g class="cls-1"><g id="Layer_1" data-name="Layer 1"><rect class="cls-2" x="1287.98" y="438.48" width="1278.34" height="1168.08" rx="257.42"/><path class="cls-3" d="M1878.45,833.73a84,84,0,0,1,2.2-14.14c9.54-39.1,67.07-35.1,71.11,4.94a83.77,83.77,0,1,1-166.92,2.69l.06-.85c3.6-45.21,71.33-41.68,72.27,1.5"/><path class="cls-3" d="M1972.06,840.23a84,84,0,0,1,2.2-14.14c9.54-39.1,67.07-35.1,71.12,4.95a83.78,83.78,0,1,1-164.73-11.45c9.54-39.1,67.07-35.1,71.11,4.94a83.16,83.16,0,0,1,.22,14.31"/><line class="cls-4" x1="1973.42" y1="831.32" x2="1973.6" y2="1274.95"/><line class="cls-4" x1="1857.21" y1="827.29" x2="1872.67" y2="1306.17"/><path class="cls-5" d="M1975.43,1255.84c-1.31,9-1.9,13.23-1.22,17.81.86,5.74,5.45,4.65,8.29,3.48,3.7-1.54,4-1.94,9.74-5q5.87-3.18,11.66-6.48c2.47-1.4,6.13-3.47,10.68-6l10-6c57.26-35.67,57.26-36.67,107.79-78.27l12.68-11.51c124.17-121.3,89.57-257.38,47.33-337.23-48.85-92.32-147.72-121-179.12-130.43-116.26-34.9-222.71,3.5-273,37.79-15.24,10.4-44.35,30.92-60.21,70.49-12.12,30.22-14.68,43.89-15.55,52.68-1.63,16.31-9.11,65.33,5.57,109.41,1.34,4,2.61,11.76,3.23,22.63,1.08,19.09-1.62,34.26-4.21,41-4.74,12.26-10.48,20.49-17.22,30.17-5.67,8.14-10.49,13.76-19.62,24.4-8.31,9.69-15,16.81-20,22.13-11,11.68-16.5,17.51-21.09,21.5-4.07,3.52-6.51,6-11.41,11-5.16,5.24-6.74,7.22-8,10.08-2,4.63-2,8.85-2,12.19a33.15,33.15,0,0,0,2,11.9,25.55,25.55,0,0,0,6.55,10.53c2.48,2.26,3.9,2.42,15.22,6.66,9.27,3.48,11.32,4.51,13.58,6,3.68,2.41,6.8,4.51,8.38,8.42s.73,7.56-.26,11.74c-1.83,7.73-6.21,14.32-7.89,16.82-2.16,3.2-2.86,3.62-3.17,5.38-1,5.6,4.45,10.94,6.91,13.36a35.47,35.47,0,0,0,12.83,8.73c2.85,1.06,5.57,1.58,6.46,3.81.52,1.3.2,2.62-.94,5.53a88.53,88.53,0,0,1-4.6,9.77c-4,7.57-4.48,9.13-4.68,10.87a13.7,13.7,0,0,0,.65,6.77c.8,2.08,2,3.38,6.22,7.15,5.89,5.24,6,4.9,8.46,7.31a72.13,72.13,0,0,1,7.22,8.9c3.41,4.62,5.12,6.93,6.07,9.39,1.43,3.68,1.44,6.63,1.45,11.3,0,6.63-1.08,11.88-2.35,17.76-1,4.56-1.21,4.43-2.37,9.91a78.67,78.67,0,0,0-2,12.19,36.23,36.23,0,0,0,.38,10.66,30.72,30.72,0,0,0,4.32,10.39,34.25,34.25,0,0,0,10,9.65,45.59,45.59,0,0,0,13.55,6.54c5.53,1.56,9.85,1.56,14.45,1.57a78.21,78.21,0,0,0,15.8-1.71c7-1.45,11.81-3.39,18.34-6a174,174,0,0,0,16.78-7.8,216.91,216.91,0,0,0,19.84-11.47l106.43-72.72c1.9-2,4.37-4,6.11-7.42,3.5-7,2.54-11.4,3-17.71"/><path class="cls-6" d="M2439,977.83h0c0-7-8.39-12.73-18.77-12.85l-.94,0-120.61,6.7c-5.33.3-9.43,3.31-9.42,6.91h0c0,3.62,4.17,6.6,9.51,6.83l120.65,5.39c.3,0,.61,0,.91,0C2430.68,990.63,2439,984.87,2439,977.83Z"/><path class="cls-6" d="M2367.61,720.18h0c-4-5.78-14.12-5.75-22.75,0-.26.17-.51.36-.76.55l-95.7,73.72c-4.22,3.26-5.9,8.07-3.85,11h0c2,3,7.16,3.08,11.7.26L2358.8,742c.26-.17.52-.33.77-.51C2368,735.43,2371.61,726,2367.61,720.18Z"/><path class="cls-6" d="M1891.28,485.24h0c-7,.18-12.56,8.65-12.47,19,0,.32,0,.63,0,.95L1888,625.66c.4,5.32,3.49,9.36,7.1,9.28h0c3.61-.09,6.5-4.3,6.63-9.65l3-120.73c0-.3,0-.61,0-.91C1904.24,493.27,1898.32,485.07,1891.28,485.24Z"/><path class="cls-6" d="M1613,571.42h0c-5.71,4.12-5.47,14.22.47,22.73.18.26.37.51.57.76l75.64,94.18c3.34,4.16,8.18,5.74,11.1,3.63h0c2.93-2.11,2.94-7.22,0-11.7l-65.84-101.25c-.16-.25-.34-.5-.52-.75C1628.21,570.7,1618.68,567.29,1613,571.42Z"/><path class="cls-6" d="M2169.11,539.85h0c-6.19-3.34-15.18,1.27-20.26,10.32a8.29,8.29,0,0,0-.43.84l-51.9,109.08c-2.29,4.82-1.61,9.86,1.56,11.58h0c3.17,1.71,7.78-.5,10.55-5.08l62.51-103.33c.16-.26.31-.52.46-.79C2176.38,553.25,2175.31,543.19,2169.11,539.85Z"/><path class="cls-6" d="M2280.56,1181.37l-66.6,2.16a2.83,2.83,0,0,0-2.32,4.33l11.41,18.37-566,329.34a12,12,0,0,0-4.34,16.41h0a12,12,0,0,0,16.41,4.33l566.59-329.69,11.08,17.84a2.84,2.84,0,0,0,4.92-.16l31.43-58.75A2.84,2.84,0,0,0,2280.56,1181.37Z"/></g></g></svg>